<svg id="Layer_1" data-name="Layer 1" xmlns="http://www.w3.org/2000/svg" viewBox="0 0 81.36 67.19"><defs><style>.cls-1{fill:#777e8c;}</style></defs><title>Pot-Icon</title><path class="cls-1" d="M44.69,11.06A33.6,33.6,0,1,0,78.25,44.69,33.59,33.59,0,0,0,44.69,11.06Zm9.9,36.78-19.89,0V41.47l19.89,0Zm-42.25,10c.37.9.78,1.78,1.23,2.65H9.19A5.23,5.23,0,0,1,4,55.29L4,34.8a5.25,5.25,0,0,1,5.24-5.22h3.92c-.41.86-.79,1.75-1.13,2.65H9.22a2.58,2.58,0,0,0-2.57,2.58l0,20.49A2.58,2.58,0,0,0,9.2,57.87Zm73-23,0,20.49a5.23,5.23,0,0,1-5.24,5.22H75.7c.45-.86.86-1.75,1.24-2.65h3.14a2.58,2.58,0,0,0,2.58-2.57l0-20.49a2.58,2.58,0,0,0-2.57-2.58h-2.8c-.34-.9-.71-1.79-1.13-2.65h3.93A5.23,5.23,0,0,1,85.33,34.89ZM36,46.49v-3.7l17.24,0v3.7Z" transform="translate(-3.97 -11.06)"/></svg>