<svg id="Layer_1" data-name="Layer 1" xmlns="http://www.w3.org/2000/svg" viewBox="0 0 413.85 83.64"><defs><style>.cls-1{fill:#777e8c;}.cls-2{fill:#ef4723;}</style></defs><title>MainLogo</title><path class="cls-1" d="M105.4,16.45A33.6,33.6,0,1,0,139,50.08,33.59,33.59,0,0,0,105.4,16.45Zm9.91,36.77-19.89,0V46.86l19.9,0ZM73.05,63.27c.37.9.79,1.78,1.23,2.65H69.91a5.22,5.22,0,0,1-5.22-5.23l0-20.49A5.23,5.23,0,0,1,69.94,35h3.93c-.42.86-.79,1.75-1.14,2.65H69.94a2.59,2.59,0,0,0-2.58,2.58l0,20.48a2.58,2.58,0,0,0,2.57,2.58Zm73-23,0,20.49A5.22,5.22,0,0,1,140.79,66h-4.37c.44-.86.86-1.75,1.23-2.65h3.14a2.58,2.58,0,0,0,2.58-2.57l0-20.49a2.58,2.58,0,0,0-2.57-2.58H138c-.34-.9-.72-1.79-1.13-2.65h3.92A5.22,5.22,0,0,1,146,40.28Zm-49.3,11.6v-3.7l17.24,0v3.7Z"/><path class="cls-2" d="M0,75.45H10.76V6.78H0V0H37.43c5,0,10.18.47,14,2.34C59.54,6,64.69,14.15,64.69,24.68c0,11.35-5.85,20.12-15,23.4a37.51,37.51,0,0,1-12.16,1.63H19V75.45H29.71v6.78H0ZM36.73,42.7a25.64,25.64,0,0,0,9.94-1.64c6.09-2.46,9.71-8.31,9.71-16.38,0-7.49-3.16-12.87-8.54-15.67A28.09,28.09,0,0,0,36.73,7H19V42.7Z"/><path class="cls-2" d="M152.88,30H142.36V23.39H153V7.13h7.84V23.39h14.85V30H160.84V60.12c0,13.81,8.77,15.68,13.33,15.68a13.29,13.29,0,0,0,2.69-.24v6.91a23.12,23.12,0,0,1-3.39.23c-6.78,0-20.59-2.22-20.59-21.87Z"/><path class="cls-2" d="M190.32,6.55H179.9V0h18.37V66.91c0,4.79,1.29,8.77,6.67,8.77a18.77,18.77,0,0,0,3.27-.23v6.78a33.28,33.28,0,0,1-4.56.35c-7.72,0-13.33-3.86-13.33-15.09Z"/><path class="cls-2" d="M224.12,30H213.59V23.39h18.49V58.84c0,9.24,1.4,17.43,12.86,17.43,13.22,0,21.64-12.17,21.64-24.92V30H256.05V23.39h18.49V73.23a2.29,2.29,0,0,0,2.57,2.57h6.67v6.43h-9.95c-4.91,0-7-2.1-7-6.55V72.76c0-2.34.11-4.21.11-4.21h-.23c-1.52,4.44-8.77,15.09-23.28,15.09-13.57,0-19.3-7.49-19.3-22.81Z"/><path class="cls-2" d="M323.43,22c7.37,0,21.76,3,21.76,12.75v6.43h-7.37V36.85c0-5.27-8.89-7.72-14.27-7.72-12.87,0-22.69,9.35-22.69,23.63,0,14.62,10.41,23.74,23,23.74,11.46,0,18.25-7.25,19.3-8.07l3.39,6.08a33.34,33.34,0,0,1-22.93,9.13c-16.84,0-31-11.94-31-30.65C292.67,34.62,306.47,22,323.43,22Z"/><path class="cls-2" d="M355.13,75.68h9.94V6.55H354.54V0H373V46.32h9.24L396.19,30h-8.42V23.39H413V30h-8.19L388.7,48.66v.24c.12,0,1.76.7,4.1,4.67l11.69,19.66c1.17,2,2.11,2.45,5.38,2.45h4v6.55H407.3c-5.85,0-7.37-1-10.18-5.85L384.61,55.21c-1.41-2.1-2.93-2.45-5.74-2.45H373V75.68h9.35v6.55H355.13Z"/></svg>